<svg width="100" height="100" xmlns="http://www.w3.org/2000/svg">
 <g>
  <title>background</title>
  <rect fill="none" id="canvas_background" height="102" width="102" y="-1" x="-1"/>
 </g>

 <g>
  <title>Layer 1</title>
  <path stroke="#eeffee" id="svg_1" d="m95.86873,54.6202l-8.2464,0c-2.27921,0 -4.12527,-1.84605 -4.12527,-4.1232s1.84606,-4.12527 4.12527,-4.12527l8.2464,0c2.27921,0 4.12527,1.84812 4.12527,4.12527s-1.844,4.1232 -4.12527,4.1232zm-16.20198,-27.4557c-1.61091,1.61091 -4.22633,1.61091 -5.83312,0c-1.61092,-1.61092 -1.61092,-4.22221 0,-5.83313l5.83312,-5.83312c1.60679,-1.61092 4.22221,-1.61092 5.83313,0c1.60679,1.61091 1.60679,4.2222 0,5.83312l-5.83313,5.83313zm-29.16769,48.07997c-13.66906,0 -24.75159,-11.08047 -24.75159,-24.74747c0,-13.66907 11.08046,-24.74953 24.75159,-24.74953c13.66907,0 24.74747,11.08046 24.74747,24.74953c0,13.667 -11.0784,24.74747 -24.74747,24.74747zm0,-41.24647c-9.11271,0 -16.50106,7.38629 -16.50106,16.499c0,9.11065 7.39041,16.499 16.50106,16.499s16.49694,-7.38835 16.49694,-16.499c0,-9.11271 -7.38423,-16.499 -16.49694,-16.499zm0,-16.499c-2.27921,0 -4.12526,-1.84812 -4.12526,-4.12527l0,-8.24846c0,-2.27715 1.84605,-4.12527 4.12526,-4.12527c2.27715,0 4.12527,1.84812 4.12527,4.12527l0,8.24846c0,2.27715 -1.85018,4.12527 -4.12527,4.12527zm-29.16769,9.6655l-5.83312,-5.83313c-1.61092,-1.61092 -1.61092,-4.22221 0,-5.83313s4.22221,-1.61091 5.83312,0l5.83313,5.83313c1.61091,1.61092 1.61091,4.22221 0,5.83313s-4.22221,1.61091 -5.83313,0zm-3.83237,23.3325c0,2.27715 -1.84812,4.1232 -4.12527,4.1232l-8.25053,0c-2.27714,0 -4.1232,-1.84605 -4.1232,-4.1232s1.84812,-4.12527 4.1232,-4.12527l8.25053,0c2.27921,0 4.12527,1.84812 4.12527,4.12527zm3.83237,23.3325c1.61092,-1.60885 4.22221,-1.60885 5.83313,0c1.61091,1.61092 1.61091,4.22427 0,5.83313l-5.83313,5.83312c-1.61091,1.61092 -4.22221,1.61092 -5.83312,0c-1.61092,-1.60885 -1.61092,-4.22221 0,-5.83312l5.83312,-5.83313zm29.16769,9.6655c2.27715,0 4.12527,1.84605 4.12527,4.1232l0,8.25053c0,2.27715 -1.84812,4.12527 -4.12527,4.12527c-2.27921,0 -4.12526,-1.84812 -4.12526,-4.12527l0,-8.25053c0,-2.27715 1.84605,-4.1232 4.12526,-4.1232zm29.16769,-9.6655l5.83313,5.83313c1.60679,1.61091 1.60679,4.22427 0,5.83312c-1.61092,1.61092 -4.22634,1.61092 -5.83313,0l-5.83312,-5.83312c-1.61092,-1.60886 -1.61092,-4.22221 0,-5.83313c1.60679,-1.61092 4.22014,-1.61092 5.83312,0z" clip-rule="evenodd" fill-rule="evenodd" fill="#eeffee"/>
 </g>
</svg>